<svg xmlns="http://www.w3.org/2000/svg" fill-rule="evenodd" clip-rule="evenodd" image-rendering="optimizeQuality"
     shape-rendering="geometricPrecision" text-rendering="geometricPrecision" viewBox="0 0 358 358">
    <path fill="#5381d9"
          d="M297.5 39.5c.282 1.278.949 2.278 2 3-.617.11-1.117.444-1.5 1-5.957-3.236-12.124-5.736-18.5-7.5a5512.38 5512.38 0 0 0-105-.5c-31.335-.167-62.668 0-94 .5a217.163 217.163 0 0 0-6 2.5c-3.94-1.064-7.94-1.064-12 0 5.886-2.887 12.22-4.387 19-4.5a9702.015 9702.015 0 0 1 197 0 54.53 54.53 0 0 1 19 5.5Z"/>
    <path fill="#0067e9"
          d="M174.5 35.5c3.128 1.132 6.462 1.965 10 2.5a15.28 15.28 0 0 0-4.5 1.5c-2.371-1.277-4.871-.777-7.5 1.5a46.23 46.23 0 0 0 12 2c1.141.741 1.141 1.575 0 2.5 10.32.98 20.653 1.814 31 2.5l-3 1c4.895 4.11 10.228 4.61 16 1.5a6.846 6.846 0 0 0 4 1c-.42 2.174-.42 4.174 0 6a64.873 64.873 0 0 0 16 1c-.922 3.983.578 6.316 4.5 7 1.009 1.525 1.509 3.192 1.5 5 3.307-.55 6.64-.884 10-1v3c3.661.21 7.161-.456 10.5-2a160.279 160.279 0 0 0 21.5 3c3.04 2.54 6.373 3.207 10 2 2.017 1.173 2.684 2.673 2 4.5-2.098.014-3.931-.153-5.5-.5-2.758 1.653-2.424 3.32 1 5a8.43 8.43 0 0 1 .5 4c2.948-.277 5.781.056 8.5 1a6.977 6.977 0 0 1 2.5-3.5c-1.26-1.814-1.26-3.647 0-5.5a40.719 40.719 0 0 0 3 9.5c-1.612 2.994-.945 5.16 2 6.5a1245.6 1245.6 0 0 0 0 25.5l-1.5 4.5a93.208 93.208 0 0 0-2-17 184.396 184.396 0 0 0-2.5 19 57.933 57.933 0 0 0-9-5c-.886-.825-1.219-1.825-1-3a16.873 16.873 0 0 1-8-1 36.16 36.16 0 0 0-7-4c-.399-1.706-.399-3.206 0-4.5-6.053.847-10.72-1.153-14-6a4.934 4.934 0 0 0-3-.5v3c-4.96-2.59-10.293-4.59-16-6a3.647 3.647 0 0 1 1-1.5c-3.666-1.173-6.666-3.34-9-6.5a62.687 62.687 0 0 0-11-1.5l-4.5-6.5-1 1c-2.333-4-4.667-4-7 0a8.43 8.43 0 0 1-.5-4h-18c-.574-3.468-2.408-6.134-5.5-8a32.462 32.462 0 0 0-.5 8c-2.573.352-4.906-.148-7-1.5a6.807 6.807 0 0 0 3-1.5c-2.333-5-6-8.667-11-11l-2 2a9.86 9.86 0 0 1-1-6c-4.27-.872-8.27-2.539-12-5a25.87 25.87 0 0 0-10-1c.262-1.478-.071-2.811-1-4-2.123 1.81-4.457 3.143-7 4v-6a71.626 71.626 0 0 0-16-2v-5a215.894 215.894 0 0 0-32 0 148.43 148.43 0 0 0-15-2.5l2-1a20.473 20.473 0 0 0-3.5-2.5c-4.905.58-9.238 1.58-13 3-1.51-1.064-1.677-2.397-.5-4a217.163 217.163 0 0 1 6-2.5c31.332-.5 62.665-.667 94-.5Z"/>
    <path fill="#006ef0"
          d="M174.5 35.5c35.002-.167 70.002 0 105 .5 6.376 1.764 12.543 4.264 18.5 7.5.383-.556.883-.89 1.5-1a2.429 2.429 0 0 0 .5 2c1.299-.466 2.799-.466 4.5 0a428.726 428.726 0 0 0 7.5 11c.494 1.634.66 3.3.5 5h3c2.068 2.656 3.401 5.656 4 9a73.312 73.312 0 0 0 1 12v15c-2.945-1.34-3.612-3.506-2-6.5a40.719 40.719 0 0 1-3-9.5c-1.26 1.853-1.26 3.686 0 5.5a6.977 6.977 0 0 0-2.5 3.5c-2.719-.944-5.552-1.277-8.5-1a8.43 8.43 0 0 0-.5-4c-3.424-1.68-3.758-3.347-1-5 1.569.347 3.402.514 5.5.5.684-1.827.017-3.327-2-4.5-3.627 1.207-6.96.54-10-2a160.279 160.279 0 0 1-21.5-3 21.693 21.693 0 0 1-10.5 2v-3c-3.36.116-6.693.45-10 1 .009-1.808-.491-3.475-1.5-5-3.922-.684-5.422-3.017-4.5-7a64.873 64.873 0 0 1-16-1c-.42-1.826-.42-3.826 0-6a6.846 6.846 0 0 1-4-1c-5.772 3.11-11.105 2.61-16-1.5l3-1c-10.347-.686-20.68-1.52-31-2.5 1.141-.925 1.141-1.759 0-2.5a46.23 46.23 0 0 1-12-2c2.629-2.277 5.129-2.777 7.5-1.5a15.28 15.28 0 0 1 4.5-1.5c-3.538-.535-6.872-1.368-10-2.5Z"/>
    <path fill="#376acd"
          d="M62.5 38.5a19.503 19.503 0 0 1-4.5 7 7.253 7.253 0 0 0-2.5-2c-2.387 2.19-5.053 3.856-8 5 4.131-4.57 9.131-7.904 15-10Z"/>
    <path fill="#7397e2"
          d="M297.5 39.5c2.9.943 5.233 2.61 7 5-1.701-.466-3.201-.466-4.5 0a2.429 2.429 0 0 1-.5-2c-1.051-.722-1.718-1.722-2-3Z"/>
    <path fill="#0062e3"
          d="M314.5 128.5c1.66 6.769 1.16 13.436-1.5 20a8.43 8.43 0 0 1-.5-4c-5.711.095-11.211.095-16.5 0l-1 2c-1.786-1.599-3.953-2.433-6.5-2.5l-1-1a15.256 15.256 0 0 0 1.5-4.5c.519 1.016 1.353 1.682 2.5 2a30.608 30.608 0 0 0 5-3c-2.376-1.091-4.876-2.757-7.5-5a8.43 8.43 0 0 1-.5-4c-6.956-1.088-7.456.245-1.5 4 1.714 2.95 1.714 5.95 0 9-1.003-2.656-2.67-3.656-5-3a12.93 12.93 0 0 1-.5-5c-1.322.17-2.489-.163-3.5-1-2.176-5.002-5.343-9.336-9.5-13-1.151-1.231-2.317-1.231-3.5 0a12.93 12.93 0 0 1-.5-5 50.113 50.113 0 0 1-12-2v-4h-4v4a702.27 702.27 0 0 1-26-.5c-1.281-2.403-3.114-4.237-5.5-5.5a8.43 8.43 0 0 1-.5-4l-16-1c-.214-1.644.12-3.144 1-4.5a40.939 40.939 0 0 1 9-.5c-.718-3.742-2.718-6.742-6-9-1.189-.929-2.522-1.262-4-1v4h-13c.363-2.412-.637-3.912-3-4.5a128.43 128.43 0 0 0-16-.5c-1.022-4.547-3.522-8.214-7.5-11-2.777 2.791-4.277 2.125-4.5-2h-4v-3h-16v-5a50.442 50.442 0 0 1-10-.5c-2.113-4.39-5.446-6.057-10-5l-1-1c3.631-.206 3.965-1.373 1-3.5a261.666 261.666 0 0 1-12-5.5c-3.062-.742-6.062-.575-9 .5a18.088 18.088 0 0 1-3.5-2l-3 1-.5-1c5.485-.667 10.819-1.334 16-2a215.894 215.894 0 0 1 32 0v5a71.626 71.626 0 0 1 16 2v6c2.543-.857 4.877-2.19 7-4 .929 1.189 1.262 2.522 1 4a25.87 25.87 0 0 1 10 1c3.73 2.461 7.73 4.128 12 5a9.86 9.86 0 0 0 1 6l2-2c5 2.333 8.667 6 11 11a6.807 6.807 0 0 1-3 1.5c2.094 1.352 4.427 1.852 7 1.5a32.462 32.462 0 0 1 .5-8c3.092 1.866 4.926 4.532 5.5 8h18a8.43 8.43 0 0 0 .5 4c2.333-4 4.667-4 7 0l1-1 4.5 6.5c3.711.175 7.378.675 11 1.5 2.334 3.16 5.334 5.327 9 6.5a3.647 3.647 0 0 0-1 1.5c5.707 1.41 11.04 3.41 16 6v-3a4.934 4.934 0 0 1 3 .5c3.28 4.847 7.947 6.847 14 6-.399 1.294-.399 2.794 0 4.5a36.16 36.16 0 0 1 7 4 16.873 16.873 0 0 0 8 1c-.219 1.175.114 2.175 1 3a57.933 57.933 0 0 1 9 5Z"/>
    <path fill="#005fdc"
          d="M74.5 38.5c-1.177 1.603-1.01 2.936.5 4 3.762-1.42 8.095-2.42 13-3a20.473 20.473 0 0 1 3.5 2.5l-2 1a148.43 148.43 0 0 1 15 2.5c-5.181.666-10.515 1.333-16 2l.5 1 3-1a18.088 18.088 0 0 0 3.5 2c2.938-1.075 5.938-1.242 9-.5a261.666 261.666 0 0 0 12 5.5c2.965 2.127 2.631 3.294-1 3.5l1 1c4.554-1.057 7.887.61 10 5 3.317.498 6.65.665 10 .5v5h16v3h4c.223 4.125 1.723 4.791 4.5 2 3.978 2.786 6.478 6.453 7.5 11 5.344-.166 10.677 0 16 .5 2.363.588 3.363 2.088 3 4.5h13v-4c1.478-.262 2.811.071 4 1 3.282 2.258 5.282 5.258 6 9a40.939 40.939 0 0 0-9 .5c-.88 1.356-1.214 2.856-1 4.5l16 1a8.43 8.43 0 0 0 .5 4c2.386 1.263 4.219 3.097 5.5 5.5a702.27 702.27 0 0 0 26 .5v-4h4v4a50.113 50.113 0 0 0 12 2 12.93 12.93 0 0 0 .5 5c1.183-1.231 2.349-1.231 3.5 0 4.157 3.664 7.324 7.998 9.5 13 1.011.837 2.178 1.17 3.5 1a12.93 12.93 0 0 0 .5 5c2.33-.656 3.997.344 5 3 1.714-3.05 1.714-6.05 0-9-5.956-3.755-5.456-5.088 1.5-4a8.43 8.43 0 0 0 .5 4c2.624 2.243 5.124 3.909 7.5 5a30.608 30.608 0 0 1-5 3c-1.147-.318-1.981-.984-2.5-2a15.256 15.256 0 0 1-1.5 4.5l1 1c2.547.067 4.714.901 6.5 2.5l1-2c5.289.095 10.789.095 16.5 0a8.43 8.43 0 0 0 .5 4c2.66-6.564 3.16-13.231 1.5-20a184.396 184.396 0 0 1 2.5-19 93.208 93.208 0 0 1 2 17l1.5-4.5a1245.6 1245.6 0 0 1 0-25.5v-15a3026.14 3026.14 0 0 1 1 110c-1.312.645-2.312 1.645-3 3 1.085 3.273 1.252 6.606.5 10-.419-4.352-1.086-4.685-2-1a7.293 7.293 0 0 0-2-3c-.355 10.344-1.688 10.344-4 0-2.888-3.945-6.555-6.945-11-9-.433-3.768-1.766-7.101-4-10a2.428 2.428 0 0 0-.5 2c-2.26-.738-2.427-1.738-.5-3 .667-2 .667-4 0-6-.608 1.566-1.442 2.9-2.5 4 .432-6.924-.234-13.591-2-20-3.97-13.316-11.97-23.316-24-30a53.664 53.664 0 0 0-16-5.5c-14.996-.5-29.996-.667-45-.5h-97c25.25-.519 50.584-1.352 76-2.5a647.834 647.834 0 0 0-37.5.5 12.14 12.14 0 0 1-4.5-3.5c1.349-.772 2.182-1.939 2.5-3.5 1.727.874 3.56.707 5.5-.5-1.926-.124-3.759-.958-5.5-2.5-.826 1.905-1.993 2.239-3.5 1a44.12 44.12 0 0 1 6-7.5c-1.943-3.332-3.11-3.166-3.5.5l-7-8-1 4c-3.216-3.274-4.383-7.274-3.5-12h-4c-2.244 10.416-4.41 10.416-6.5 0 .012 3.151-.988 5.818-3 8-.456-1.244.044-2.077 1.5-2.5a20.477 20.477 0 0 0-3.5-2.5c-.684-1.284-.517-2.45.5-3.5-.544-.717-1.211-1.217-2-1.5.544-6.073-.122-11.906-2-17.5 2.012-1.152 2.178-2.318.5-3.5a64.95 64.95 0 0 1-7 2c-2.189-1.149-4.189-1.815-6-2-2.778.473-5.61 1.473-8.5 3a50.441 50.441 0 0 0-10 .5c-1.778 2.135-2.445 4.635-2 7.5h-3c-.24-1.967.094-3.8 1-5.5-1.466-1.552-2.466-3.385-3-5.5-1.512-1.362-3.012-1.696-4.5-1a20.509 20.509 0 0 0-3-8c-1.63 1.065-2.796 2.399-3.5 4a18.088 18.088 0 0 1-3.5-2c-1.016 1.134-1.683.8-2-1a17.81 17.81 0 0 1-3.5 5 42.707 42.707 0 0 1-1.5-9l-5 6c-.353 1.172-.187 2.338.5 3.5-1.131 2.82-2.798 3.153-5 1 2.247-1.995 3.247-4.495 3-7.5-.885-2.436-.885-5.102 0-8 2.947-1.144 5.613-2.81 8-5a7.253 7.253 0 0 1 2.5 2 19.503 19.503 0 0 0 4.5-7c4.06-1.064 8.06-1.064 12 0Z"/>
    <path fill="#4578d9"
          d="M304.5 44.5c4.787 3.448 8.454 7.781 11 13-.073 1.527.594 2.527 2 3 1.037 1.43 1.704 3.097 2 5v4c-.599-3.344-1.932-6.344-4-9h-3a12.93 12.93 0 0 0-.5-5 428.726 428.726 0 0 1-7.5-11Z"/>
    <path fill="#afd0f9" d="M315.5 57.5c1.406.473 2.073 1.473 2 3-1.406-.473-2.073-1.473-2-3Z" opacity=".298"/>
    <path fill="#0055d1"
          d="M100.5 123.5a71.11 71.11 0 0 1-9 3 29.303 29.303 0 0 0-6.5 2c-1.326-.255-2.326-.922-3-2l-1 2c-3.125-2.89-5.792-6.223-8-10a10.255 10.255 0 0 1-1.5 4c-3.14-1.82-5.973-4.153-8.5-7a7.292 7.292 0 0 1-2 3c-1.319-1.75-1.819-3.75-1.5-6-5.046-1.267-9.546-1.267-13.5 0l-1-8c-3.49-.515-5.49-2.849-6-7-.667 2.667-1.333 2.667-2 0-.278.916-.778 1.582-1.5 2v-9c1.1 1.777 1.934 3.777 2.5 6-.876-5.955-.376-11.789 1.5-17.5-2.581-1.49-3.414-3.657-2.5-6.5l3 1a20.216 20.216 0 0 1 1.5-6c.925 1.14 1.759 1.14 2.5 0a6.541 6.541 0 0 0 3 3l7-1c1.101 1.894 2.434 2.56 4 2l1 3c1.268-.116 2.602-.45 4-1 3.63.89 6.963 2.89 10 6l1-1c.492 1.049.326 2.049-.5 3a4.452 4.452 0 0 0 2 1.5c-1.544.29-2.877.956-4 2a62.52 62.52 0 0 0 4 12.5c6.404-.418 12.904-1.418 19.5-3 2.8.737 2.966 1.57.5 2.5 3.493 1.004 6.659.504 9.5-1.5.617.95.451 1.782-.5 2.5 1.803.637 3.136 1.803 4 3.5a117.513 117.513 0 0 1 15 3c-.219-1.175.114-2.175 1-3a7.492 7.492 0 0 1 .5 5l1-1c.187 2.391 1.02 3.558 2.5 3.5-2.851 2.03-5.018 5.196-6.5 9.5-1.264-3.511-3.097-3.678-5.5-.5.951.718 1.117 1.551.5 2.5l-11-1a49.937 49.937 0 0 0-5.5 4Z"/>
    <path fill="#1d60cb"
          d="M115.5 86.5c.423 2.281-.244 3.948-2 5 .166-6.675 0-13.342-.5-20-2.904-1.727-6.07-2.394-9.5-2-.968 2.107-1.302 4.44-1 7a71.015 71.015 0 0 1-2-4 3.646 3.646 0 0 0-1.5 1c-2.87-4.137-4.203-3.47-4 2-.67.752-1.504 1.086-2.5 1v-8c2.89-1.527 5.722-2.527 8.5-3 1.811.185 3.811.851 6 2a64.95 64.95 0 0 0 7-2c1.678 1.182 1.512 2.348-.5 3.5 1.878 5.594 2.544 11.427 2 17.5Z"/>
    <path fill="#ecf4fc"
          d="M92.5 69.5v7h-4v11h4v7a32.437 32.437 0 0 1-8-.5c-1.19-.698-2.19-1.531-3-2.5-.166-6.342 0-12.675.5-19 .5-1.167 1.333-2 2.5-2.5a32.437 32.437 0 0 1 8-.5Z"/>
    <path fill="#8facdc" d="M319.5 65.5a68.818 68.818 0 0 1 3 6.5c-.228.399-.562.565-1 .5l-2-3v-4Z" opacity=".651"/>
    <path fill="#87a4d6" d="M103.5 69.5v6h4c.317 4.202-.017 8.202-1 12v-11h-4c-.302-2.56.032-4.893 1-7Z"/>
    <path fill="#1752ab"
          d="M92.5 68.5v1a32.437 32.437 0 0 0-8 .5c-1.167.5-2 1.333-2.5 2.5a180.95 180.95 0 0 0-.5 19c-.987-4.805-1.32-9.805-1-15-.445-2.865.222-5.365 2-7.5a50.441 50.441 0 0 1 10-.5Z"
          opacity=".988"/>
    <path fill="#f5fdfe"
          d="M103.5 69.5c3.43-.394 6.596.273 9.5 2 .5 6.658.666 13.325.5 20-.333 1-1 1.667-2 2h-8v-6h3c.983-3.798 1.317-7.798 1-12h-4v-6Z"/>
    <path fill="#025ad4"
          d="M80.5 76.5c-.32 5.195.013 10.195 1 15 .81.969 1.81 1.802 3 2.5 2.646.497 5.313.664 8 .5v-7h-4v-11h4c.996.086 1.83-.248 2.5-1-.203-5.47 1.13-6.137 4-2 .414-.457.914-.79 1.5-1a71.015 71.015 0 0 0 2 4h4v11h-3c-.968 2.107-1.302 4.44-1 7 3.213.31 6.213-.023 9-1 1-.333 1.667-1 2-2 1.756-1.052 2.423-2.719 2-5 .789.283 1.456.783 2 1.5-1.017 1.05-1.184 2.216-.5 3.5a20.477 20.477 0 0 1 3.5 2.5c-1.456.423-1.956 1.256-1.5 2.5 2.012-2.182 3.012-4.849 3-8 2.09 10.416 4.256 10.416 6.5 0h4c-.883 4.726.284 8.726 3.5 12l1-4 7 8c.39-3.666 1.557-3.832 3.5-.5a44.12 44.12 0 0 0-6 7.5c1.507 1.239 2.674.905 3.5-1 1.741 1.542 3.574 2.376 5.5 2.5-1.94 1.207-3.773 1.374-5.5.5-.318 1.561-1.151 2.728-2.5 3.5a12.14 12.14 0 0 0 4.5 3.5 647.834 647.834 0 0 1 37.5-.5 3092.868 3092.868 0 0 1-76 2.5 24.93 24.93 0 0 0-8 1 49.937 49.937 0 0 1 5.5-4l11 1c.617-.949.451-1.782-.5-2.5 2.403-3.178 4.236-3.011 5.5.5 1.482-4.304 3.649-7.47 6.5-9.5-1.48.058-2.313-1.109-2.5-3.5l-1 1a7.492 7.492 0 0 0-.5-5c-.886.825-1.219 1.825-1 3a117.513 117.513 0 0 0-15-3c-.864-1.697-2.197-2.863-4-3.5.951-.718 1.117-1.55.5-2.5-2.841 2.004-6.007 2.504-9.5 1.5 2.466-.93 2.3-1.763-.5-2.5-6.596 1.582-13.096 2.582-19.5 3a62.52 62.52 0 0 1-4-12.5c1.123-1.044 2.456-1.71 4-2a4.452 4.452 0 0 1-2-1.5c.826-.951.992-1.951.5-3l-1 1c-3.037-3.11-6.37-5.11-10-6-1.398.55-2.732.884-4 1l-1-3c-1.566.56-2.899-.106-4-2l-7 1a6.541 6.541 0 0 1-3-3c-.741 1.14-1.575 1.14-2.5 0a20.216 20.216 0 0 0-1.5 6l-3-1c-.914 2.843-.081 5.01 2.5 6.5-1.876 5.711-2.376 11.545-1.5 17.5-.566-2.223-1.4-4.223-2.5-6 .3-5.317.3-10.484 0-15.5.813-5.728 2.98-10.895 6.5-15.5.805 2.401 1.638 2.234 2.5-.5-2.667-1.333-2.667-2.667 0-4 1.288-.239 2.288.261 3 1.5.247 3.005-.753 5.505-3 7.5 2.202 2.153 3.869 1.82 5-1-.687-1.162-.853-2.328-.5-3.5l5-6a42.707 42.707 0 0 0 1.5 9 17.81 17.81 0 0 0 3.5-5c.317 1.8.984 2.134 2 1a18.088 18.088 0 0 0 3.5 2c.704-1.601 1.87-2.935 3.5-4a20.509 20.509 0 0 1 3 8c1.488-.696 2.988-.362 4.5 1 .534 2.115 1.534 3.948 3 5.5-.906 1.7-1.24 3.533-1 5.5h3Z"/>
    <path fill="#90b0e4" d="M103.5 87.5v6h8c-2.787.977-5.787 1.31-9 1-.302-2.56.032-4.893 1-7Z"/>
    <path fill="#1955bd"
          d="M47.5 48.5c-.885 2.898-.885 5.564 0 8-.712-1.239-1.712-1.739-3-1.5-2.667 1.333-2.667 2.667 0 4-.862 2.734-1.695 2.901-2.5.5-3.52 4.605-5.687 9.772-6.5 15.5.3 5.016.3 10.183 0 15.5v38h-1v-53c1.243-10.551 5.576-19.551 13-27Z"/>
    <path fill="#004ec8"
          d="M91.5 126.5a67.718 67.718 0 0 0-12 10 57.484 57.484 0 0 0-9 9c-4.92-.734-9.253 1.266-13 6-4.75.918-9.084 2.584-13 5 .219 1.175-.114 2.175-1 3-2.233.364-4.066 1.364-5.5 3l-1-5-1 15c-.5-14.663-.667-29.33-.5-44v-29c.722-.418 1.222-1.084 1.5-2 .667 2.667 1.333 2.667 2 0 .51 4.151 2.51 6.485 6 7l1 8c3.954-1.267 8.454-1.267 13.5 0-.319 2.25.181 4.25 1.5 6a7.292 7.292 0 0 0 2-3c2.527 2.847 5.36 5.18 8.5 7a10.255 10.255 0 0 0 1.5-4c2.208 3.777 4.875 7.11 8 10l1-2c.674 1.078 1.674 1.745 3 2a29.303 29.303 0 0 1 6.5-2Z"/>
    <path fill="#0797fb"
          d="M108.5 122.5h97a1391.589 1391.589 0 0 1-53 1.5c20.041.972 40.041 1.638 60 2l-36 1c1.718.346 3.385.846 5 1.5 1.216-.502 2.383-.835 3.5-1 .519 1.016 1.353 1.682 2.5 2l3-2c6.984.983 13.151.983 18.5 0a162.321 162.321 0 0 0 37.5 5h-60c-26.335-.167-52.669 0-79 .5a44.774 44.774 0 0 0-11 3 103.203 103.203 0 0 0-16 13.5c.13-.876-.203-1.543-1-2-1.667 1-3 2.333-4 4a12.794 12.794 0 0 1-2-4.5c1.44-3.911 3.44-7.411 6-10.5a67.718 67.718 0 0 1 12-10 71.11 71.11 0 0 0 9-3 24.93 24.93 0 0 1 8-1Z"/>
    <path fill="#039efd"
          d="M205.5 122.5c15.004-.167 30.004 0 45 .5a53.664 53.664 0 0 1 16 5.5c.326 2.161 1.326 3.994 3 5.5-1.542 1.741-2.376 3.574-2.5 5.5-.81-1.806-1.976-3.306-3.5-4.5.791-1.101.791-1.934 0-2.5-4.6.517-9.266.517-14 0h-3a162.321 162.321 0 0 1-37.5-5c-5.349.983-11.516.983-18.5 0l-3 2c-1.147-.318-1.981-.984-2.5-2-1.117.165-2.284.498-3.5 1a28.043 28.043 0 0 0-5-1.5l36-1a1979.473 1979.473 0 0 1-60-2c17.838-.168 35.505-.668 53-1.5Z"/>
    <path fill="#002c98"
          d="M186.5 132.5c3.768.576 7.435 1.742 11 3.5a163.282 163.282 0 0 1-18.5 3.5c-2.191-.714-4.524-1.047-7-1a66.678 66.678 0 0 1-5.5 2 35.193 35.193 0 0 1-4.5-1 137.94 137.94 0 0 1-21.5 2.5l12 1-1 1-31 1c-7.135 1.592-14.468 3.592-22 6a206.057 206.057 0 0 0-17 9c1.122 1.613.622 2.78-1.5 3.5-.383-.556-.883-.889-1.5-1a103.155 103.155 0 0 1 3-9.5 11.114 11.114 0 0 0-1-2.5v-1a103.203 103.203 0 0 1 16-13.5 44.774 44.774 0 0 1 11-3c26.331-.5 52.665-.667 79-.5Z"/>
    <path fill="#0696fc"
          d="M266.5 128.5c12.03 6.684 20.03 16.684 24 30-2.49 3.256-2.49 6.59 0 10a32.087 32.087 0 0 0-3.5 4c-1.969-4.283-4.136-8.283-6.5-12-1.827-5.816-4.827-10.983-9-15.5a39.806 39.806 0 0 1-8-7 123.21 123.21 0 0 0-14-5.5c4.734.517 9.4.517 14 0 .791.566.791 1.399 0 2.5 1.524 1.194 2.69 2.694 3.5 4.5.124-1.926.958-3.759 2.5-5.5-1.674-1.506-2.674-3.339-3-5.5Z"/>
    <path fill="#003cb0"
          d="M221.5 132.5h25a81.316 81.316 0 0 0 3 2.5l-1.5 1.5c-1.388-1.054-2.888-1.22-4.5-.5.457.414.791.914 1 1.5a289.034 289.034 0 0 0-6 3c-1.291-.237-2.291.096-3 1a21.127 21.127 0 0 0-9 1c-2.245 2.123-4.912 3.123-8 3-.307-3.462-1.307-3.462-3 0a31.526 31.526 0 0 1-6.5-1c-1.326.255-2.326.922-3 2-.965-1.76-2.132-2.094-3.5-1a4.457 4.457 0 0 0 2 1.5c-1.525 1.009-3.192 1.509-5 1.5-.17 1.322.163 2.489 1 3.5a282.92 282.92 0 0 1-31 6.5 13.116 13.116 0 0 0-1 7c-9.18.498-18.846.998-29 1.5-1.939.908-2.939 2.408-3 4.5l-8 2v3c-7.855-.497-15.855-.497-24 0a8.43 8.43 0 0 1-.5 4 573.348 573.348 0 0 0-17.5 0c.262-1.478-.071-2.811-1-4-2.06 2.538-3.06 5.538-3 9h-3c.215-1.679-.452-2.679-2-3-.827-5.151-1.327-10.484-1.5-16l-1 1c-.058-6.324 1.775-11.991 5.5-17 .423.765.757 1.598 1 2.5a103.155 103.155 0 0 0-3 9.5 98.529 98.529 0 0 0 0 15.5c.114 1.28.78 2.113 2 2.5a118.195 118.195 0 0 0 3-13c2.576-.782 4.576-2.282 6-4.5 4.702-.172 9.368-.672 14-1.5-6.26-1.185-6.427-2.519-.5-4 .414.457.914.791 1.5 1 3.646-1.78 7.146-3.113 10.5-4 3.107.849 6.107 1.183 9 1 5.335-3.165 11.502-5.165 18.5-6 1.189.256 2.356.589 3.5 1a494.75 494.75 0 0 1 29-6c4.438.873 8.771.873 13 0l1.5-1.5c8.913-1.342 17.246-3.509 25-6.5l2 1c.169-.897.502-1.897 1-3 1.548 2.422 3.214 2.422 5 0a43.836 43.836 0 0 1-1-2Z"/>
    <path fill="#0033a2"
          d="M186.5 132.5h35c.304.65.637 1.317 1 2-1.786 2.422-3.452 2.422-5 0-.498 1.103-.831 2.103-1 3l-2-1c-7.754 2.991-16.087 5.158-25 6.5l-1.5 1.5c-4.229.873-8.562.873-13 0a494.75 494.75 0 0 0-29 6 27.395 27.395 0 0 0-3.5-1c-6.998.835-13.165 2.835-18.5 6-2.893.183-5.893-.151-9-1-3.354.887-6.854 2.22-10.5 4a3.647 3.647 0 0 1-1.5-1c-5.927 1.481-5.76 2.815.5 4a100.287 100.287 0 0 1-14 1.5c-1.424 2.218-3.424 3.718-6 4.5a118.195 118.195 0 0 1-3 13c-1.22-.387-1.886-1.22-2-2.5a98.529 98.529 0 0 1 0-15.5c.617.111 1.117.444 1.5 1 2.122-.72 2.622-1.887 1.5-3.5a206.057 206.057 0 0 1 17-9c7.532-2.408 14.865-4.408 22-6l31-1 1-1-12-1a137.94 137.94 0 0 0 21.5-2.5c1.533.444 3.033.777 4.5 1a66.678 66.678 0 0 0 5.5-2c2.476-.047 4.809.286 7 1a163.282 163.282 0 0 0 18.5-3.5c-3.565-1.758-7.232-2.924-11-3.5Z"/>
    <path fill="#2357b3"
          d="M235.5 141.5c.709-.904 1.709-1.237 3-1a57.35 57.35 0 0 1 15 1.5c2.118 1.049 3.784 2.549 5 4.5-7.142-3.694-14.808-5.361-23-5Z"/>
    <path fill="#055ed5"
          d="M246.5 132.5h3a123.21 123.21 0 0 1 14 5.5 39.806 39.806 0 0 0 8 7c4.173 4.517 7.173 9.684 9 15.5a28.208 28.208 0 0 1-4 1.5l1 1c-1.366 2.997-2.033 6.164-2 9.5l-2-4c-2.661-8.983-7.661-16.316-15-22-1.216-1.951-2.882-3.451-5-4.5a57.35 57.35 0 0 0-15-1.5 289.034 289.034 0 0 1 6-3 3.647 3.647 0 0 0-1-1.5c1.612-.72 3.112-.554 4.5.5l1.5-1.5a81.316 81.316 0 0 1-3-2.5Z"/>
    <path fill="#fcfdfe"
          d="M235.5 141.5c8.192-.361 15.858 1.306 23 5 7.339 5.684 12.339 13.017 15 22 .98 14.433-4.354 25.766-16 34-9.194 5.35-18.86 6.35-29 3h-1c-5.911-3.242-10.911-7.575-15-13a1982.283 1982.283 0 0 0-5-10c-1.179-9.593.488-18.593 5-27 6.362-7.005 14.029-11.672 23-14Z"/>
    <path fill="#0042b7"
          d="M215.5 145.5c1.77 3.253.936 5.586-2.5 7a4.934 4.934 0 0 0-.5 3c-3.112-.998-4.112.169-3 3.5-.84 1.171-1.673 2.338-2.5 3.5-2.055-.348-4.055.319-6 2-5.059 15.197-3.059 29.197 6 42a3.647 3.647 0 0 1 1.5-1c.831 1.973.998 3.973.5 6a532.745 532.745 0 0 0 10.5 4h-11a211.276 211.276 0 0 1-9.5-13c-.154-4.479-1.987-7.979-5.5-10.5.582-4.555-.084-9.055-2-13.5a106.023 106.023 0 0 1-23 3 4.934 4.934 0 0 0-.5-3c-.667 1.333-1.333 1.333-2 0a15.83 15.83 0 0 1-3.5 5.5 43.23 43.23 0 0 0-10 3c-2.929.777-5.763.61-8.5-.5-2.167 1.5-4 3.333-5.5 5.5-7.348.316-14.681.816-22 1.5a25.161 25.161 0 0 1-5.5-1c-1.094 1.589-2.594 2.922-4.5 4a10.258 10.258 0 0 0-1.5 4 47.43 47.43 0 0 1-6-5l-5 1a29.438 29.438 0 0 1-6-4c-3.088.754-3.254 1.92-.5 3.5l-1.5 1.5c-1.129-1.641-2.629-2.641-4.5-3a42.407 42.407 0 0 1-4-12c1.548.321 2.215 1.321 2 3h3c-.06-3.462.94-6.462 3-9 .929 1.189 1.262 2.522 1 4a573.348 573.348 0 0 1 17.5 0 8.43 8.43 0 0 0 .5-4c8.145-.497 16.145-.497 24 0v-3l8-2c.061-2.092 1.061-3.592 3-4.5 10.154-.502 19.82-1.002 29-1.5a13.116 13.116 0 0 1 1-7 282.92 282.92 0 0 0 31-6.5c-.837-1.011-1.17-2.178-1-3.5 1.808.009 3.475-.491 5-1.5a4.457 4.457 0 0 1-2-1.5c1.368-1.094 2.535-.76 3.5 1 .674-1.078 1.674-1.745 3-2 2.193.569 4.36.903 6.5 1Z"/>
    <path fill="#1f4baa"
          d="M235.5 141.5c-8.971 2.328-16.638 6.995-23 14a4.934 4.934 0 0 1 .5-3c3.436-1.414 4.27-3.747 2.5-7 1.693-3.462 2.693-3.462 3 0 3.088.123 5.755-.877 8-3a21.127 21.127 0 0 1 9-1Z"/>
    <path fill="#42589b" d="M34.5 75.5v198a792.103 792.103 0 0 1-2-13.5 5266.76 5266.76 0 0 1 2-184.5Z" opacity=".91"/>
    <path fill="#003baf"
          d="M59.5 162.5c-7.46 21.702-4.96 42.035 7.5 61 14.328 13.885 31.494 19.385 51.5 16.5-17.288.506-17.288 1.339 0 2.5a2512.947 2512.947 0 0 1 108.5-6c6.868 1.448 13.702 1.281 20.5-.5l-2-1a32.444 32.444 0 0 0 6-1.5c.886-.825 1.219-1.825 1-3a42.183 42.183 0 0 0 12-3c.309-2.846 1.975-4.346 5-4.5a10.098 10.098 0 0 0-6-1.5 70.622 70.622 0 0 0 12-8c1.844.704 2.344 2.037 1.5 4-2.51 2.133-4.676 4.633-6.5 7.5-10.977 8.382-23.311 13.549-37 15.5a8745.603 8745.603 0 0 0-46 5.5 424.002 424.002 0 0 0-45 3c-1.74 1.827-3.407 1.66-5-.5-5.469 3.198-10.802 3.198-16 0-5.382 2.218-11.049 3.218-17 3v-3a36.876 36.876 0 0 1-12-1 111.845 111.845 0 0 1-20-6c1.14-.925 1.14-1.759 0-2.5-2.348-.346-4.181-1.513-5.5-3.5a3.647 3.647 0 0 1-1.5 1c-1.797-4.973-4.63-9.306-8.5-13a129.992 129.992 0 0 0-6-24 80.703 80.703 0 0 1 1-24 149.267 149.267 0 0 1 6-14c.383.556.883.889 1.5 1Z"/>
    <path fill="#068bfb"
          d="M290.5 158.5c1.766 6.409 2.432 13.076 2 20a59.509 59.509 0 0 1-2 13c-.996-.086-1.829.248-2.5 1a54.187 54.187 0 0 0-3-9c-1.678 1.182-1.512 2.348.5 3.5-.316 3.257-1.982 6.09-5 8.5-.886-.825-1.219-1.825-1-3 3.556-10.568 3.89-21.235 1-32 2.364 3.717 4.531 7.717 6.5 12a32.087 32.087 0 0 1 3.5-4c-2.49-3.41-2.49-6.744 0-10Z"/>
    <path fill="#0048bf"
          d="M208.5 215.5c-32.002.167-64.002 0-96-.5-13.626-2.019-23.959-8.853-31-20.5 1.871.359 3.371 1.359 4.5 3l1.5-1.5c-2.754-1.58-2.588-2.746.5-3.5a29.438 29.438 0 0 0 6 4l5-1a47.43 47.43 0 0 0 6 5 10.258 10.258 0 0 1 1.5-4c1.906-1.078 3.406-2.411 4.5-4 1.792.537 3.625.87 5.5 1a439.176 439.176 0 0 1 22-1.5c1.5-2.167 3.333-4 5.5-5.5 2.737 1.11 5.571 1.277 8.5.5a43.23 43.23 0 0 1 10-3 15.83 15.83 0 0 0 3.5-5.5c.667 1.333 1.333 1.333 2 0 .483.948.649 1.948.5 3 7.785-.16 15.452-1.16 23-3 1.916 4.445 2.582 8.945 2 13.5 3.513 2.521 5.346 6.021 5.5 10.5a211.276 211.276 0 0 0 9.5 13Z"/>
    <path fill="#0054cf"
          d="M321.5 191.5v51a286.822 286.822 0 0 1-2.5 17c-.049-2.916-1.216-3.916-3.5-3-1.138-6.573-1.972-6.573-2.5 0a32.462 32.462 0 0 1-.5-8c-4.667-.667-7.333-3.333-8-8-2.579.417-4.746-.25-6.5-2-1.087 2.432-1.587 2.098-1.5-1h-8a50.464 50.464 0 0 0-.5-10h-3l-1 3c-1.319-1.75-1.819-3.75-1.5-6h3c1.125-2.321 1.292-4.654.5-7l1 2c3.5-.992 5-3.326 4.5-7a14.096 14.096 0 0 0-2-5.5c2.54-2.236 4.207-5.07 5-8.5a11.456 11.456 0 0 1-1-2.5c2.393-4.36 3.06-8.527 2-12.5a2.428 2.428 0 0 1 .5-2c2.234 2.899 3.567 6.232 4 10 4.445 2.055 8.112 5.055 11 9 2.312 10.344 3.645 10.344 4 0a7.293 7.293 0 0 1 2 3c.914-3.685 1.581-3.352 2 1 .752-3.394.585-6.727-.5-10 .688-1.355 1.688-2.355 3-3Z"/>
    <path fill="#002c97"
          d="M207.5 182.5c-.865 4.755.802 8.088 5 10-.322 2.222.345 4.056 2 5.5l9 7a8.43 8.43 0 0 0 4 .5h1c2.993 1.948 6.326 3.281 10 4-3.846-.33-7.012 1.003-9.5 4-1.762-.444-1.595-.944.5-1.5-4.429-.712-8.096-2.712-11-6-5.163.834-7.996-1.333-8.5-6.5l-1 1c-2.483-1.76-2.983-3.927-1.5-6.5l-1.5-1.5a56.385 56.385 0 0 0-2.5-15.5 9.454 9.454 0 0 0 1.5-2.5c.098 3.022.932 5.689 2.5 8Z"/>
    <path fill="#1f3780" d="M207.5 182.5c1.659 3.295 3.326 6.628 5 10-4.198-1.912-5.865-5.245-5-10Z"/>
    <path fill="#0153cc"
          d="M280.5 160.5c2.89 10.765 2.556 21.432-1 32-6.616 12.608-16.949 20.274-31 23-6.143 1.219-12.143 1.219-18 0h14c-.104-2.203-.77-4.203-2-6a90.514 90.514 0 0 0 14-4c.886-.825 1.219-1.825 1-3a4.934 4.934 0 0 0 3-.5 46.252 46.252 0 0 0 10.5-10.5 189.374 189.374 0 0 0 4.5-19c-.033-3.336.634-6.503 2-9.5l-1-1c1.401-.41 2.734-.91 4-1.5Z"/>
    <path fill="#5977c1"
          d="m319.5 69.5 2 3c.756 45.474 1.423 90.974 2 136.5a901.564 901.564 0 0 0 0 48c-.25 5.697-.917 11.197-2 16.5v-82a3026.14 3026.14 0 0 0-1-110 73.312 73.312 0 0 1-1-12Z"
          opacity=".988"/>
    <path fill="#2957b1"
          d="m273.5 168.5 2 4a189.374 189.374 0 0 1-4.5 19 46.252 46.252 0 0 1-10.5 10.5 4.934 4.934 0 0 1-3 .5c11.646-8.234 16.98-19.567 16-34Z"/>
    <path fill="#0040b5"
          d="M34.5 128.5h1c-.167 14.67 0 29.337.5 44l1-15 1 5c1.434-1.636 3.267-2.636 5.5-3 .886-.825 1.219-1.825 1-3 3.916-2.416 8.25-4.082 13-5 3.747-4.734 8.08-6.734 13-6a172.535 172.535 0 0 1-6 14c-.311-.978-.978-1.645-2-2a24.416 24.416 0 0 1-3 5c-.617-.111-1.117-.444-1.5-1a149.267 149.267 0 0 0-6 14 80.703 80.703 0 0 0-1 24 129.992 129.992 0 0 1 6 24c3.87 3.694 6.703 8.027 8.5 13a3.647 3.647 0 0 0 1.5-1c1.319 1.987 3.152 3.154 5.5 3.5 1.14.741 1.14 1.575 0 2.5a111.845 111.845 0 0 0 20 6 36.876 36.876 0 0 0 12 1v3c5.951.218 11.618-.782 17-3 5.198 3.198 10.531 3.198 16 0 1.593 2.16 3.26 2.327 5 .5a424.002 424.002 0 0 1 45-3 8745.603 8745.603 0 0 1 46-5.5c-.616 1.917-1.95 3.084-4 3.5a485.677 485.677 0 0 0-43.5 4.5c-7.255-.749-14.422-.749-21.5 0a136 136 0 0 1-28 5 10.756 10.756 0 0 1-2.5 3c-2.476.047-4.809-.286-7-1a15.256 15.256 0 0 1-4.5 1.5c1.228 2.14 2.895 3.807 5 5 3.053.179 6.053.679 9 1.5a20.2 20.2 0 0 1-6 1.5c2.406 3.364 5.406 6.031 9 8-2.734.718-3.4 2.218-2 4.5l6 2c.929-1.189 1.262-2.522 1-4h8v13c8.281.686 16.281 2.352 24 5v3a4.934 4.934 0 0 0 3-.5c1.775-3.903 4.442-4.903 8-3 1.333 1 1.333 2 0 3 1.805 1.441 3.805 1.608 6 .5a21.028 21.028 0 0 0 2 7 62.744 62.744 0 0 1-11 1.5c.916.374 1.75.874 2.5 1.5l5-1 7 2c3.178-.779 6.844-1.112 11-1a26.67 26.67 0 0 0 6.5 1.5l-4 1c.916.278 1.582.778 2 1.5a1609.52 1609.52 0 0 1-78 1 1713.51 1713.51 0 0 1 17.5-2l9 1c1.864-1.464 4.031-2.464 6.5-3l-6-2c1.205-1.638 2.538-1.971 4-1a9.86 9.86 0 0 0 1-6 256.827 256.827 0 0 1-32-1 19.414 19.414 0 0 1-8-4.5c-3.653-.714-7.153-.214-10.5 1.5a64.122 64.122 0 0 0-13.5 0c-.34-2.644.327-4.977 2-7l-2-4c-7.08-.257-9.913-3.924-8.5-11l-7 8c-2.456-1.821-5.29-2.488-8.5-2v-5c4.881-1.25.881-1.417-12-.5-2.748 4.383-4.082 4.217-4-.5h-8a83.07 83.07 0 0 0 3.5-10l-1.5-1.5a50.464 50.464 0 0 0-10-.5v4a28.818 28.818 0 0 0-10 1c-1.333-1.667-1.333-3.333 0-5l1 2a16.868 16.868 0 0 0 1-8h8v-4h-8c.331-8.36-.002-16.693-1-25a422.73 422.73 0 0 0-1.5 29l-1-15a2381.37 2381.37 0 0 0-1.5 36h-1v-147Z"/>
    <path fill="#004cc4"
          d="M295.5 183.5c1.06 3.973.393 8.14-2 12.5.235.873.569 1.707 1 2.5-.793 3.43-2.46 6.264-5 8.5a14.096 14.096 0 0 1 2 5.5c.5 3.674-1 6.008-4.5 7l-1-2c.792 2.346.625 4.679-.5 7h-3c-.319 2.25.181 4.25 1.5 6l1-3h3c.498 3.317.665 6.65.5 10h8c-.087 3.098.413 3.432 1.5 1 1.754 1.75 3.921 2.417 6.5 2 .667 4.667 3.333 7.333 8 8a32.462 32.462 0 0 0 .5 8c.528-6.573 1.362-6.573 2.5 0 2.284-.916 3.451.084 3.5 3a286.822 286.822 0 0 0 2.5-17v31c-1.879 2.592-3.213 5.592-4 9-2.458-.273-4.125.727-5 3 .941-.011 1.608.489 2 1.5-.585 2.707-1.918 4.874-4 6.5a43.986 43.986 0 0 1-7-5c-1.35 1.45-3.016 2.117-5 2-1.376-3.158-2.042-6.491-2-10h-16v-8a18.453 18.453 0 0 0 6-.5c-1.025-4.955-2.858-5.455-5.5-1.5a23.776 23.776 0 0 1-2.5-6c-4.107-.65-7.607.35-10.5 3-3.173-2.923-4.34-6.589-3.5-11h-8c-.388-5.128.112-10.128 1.5-15 3.944-.219 6.444-2.219 7.5-6 5.928-3.094 10.761-7.427 14.5-13 2.471-5.15 4.971-10.317 7.5-15.5a16.2 16.2 0 0 0-1.5-3.5c-.671.752-1.504 1.086-2.5 1a121.345 121.345 0 0 0 7-13 59.509 59.509 0 0 0 2-13c1.058-1.1 1.892-2.434 2.5-4 .667 2 .667 4 0 6-1.927 1.262-1.76 2.262.5 3Z"/>
    <path fill="#0046be"
          d="M310.5 293.5c-1.499 1.178-2.499 2.845-3 5-1.542 1.247-3.042 1.247-4.5 0-2.096 1.215-1.929 2.049.5 2.5a4.934 4.934 0 0 1-3 .5v4a12.93 12.93 0 0 0-5 .5l1 1a57.829 57.829 0 0 0-8 2.5c-3.213-.437-6.046-1.103-8.5-2-.5 1.167-1.333 2-2.5 2.5-4.452.22-8.786.22-13 0a34.099 34.099 0 0 1 6-3 9.454 9.454 0 0 0 1.5-2.5l1 1 5-2c.72 1.755 1.887 2.589 3.5 2.5-.951-3.057-1.284-6.223-1-9.5h-16c.268-2.619-.065-5.119-1-7.5-5.16-1.146-10.16-1.146-15 0 1.103 1.68.77 3.18-1 4.5-3.354-1.202-4.354-3.369-3-6.5-.288-3.104-1.955-4.604-5-4.5a15.39 15.39 0 0 0-6 3c-1.821-1.228-2.821-2.894-3-5-5.239-.537-10.239.13-15 2a551.523 551.523 0 0 1-2-9.5c-4.166-.696-8.166-1.029-12-1a62.792 62.792 0 0 1-1-15.5c-1.175.219-2.175-.114-3-1a20.428 20.428 0 0 1 9-4.5 230.123 230.123 0 0 1 26-3c5.324-2.828 10.658-4.661 16-5.5v-3c5.5-.271 10.167-2.271 14-6 6.351-2.179 11.017-6.346 14-12.5l-1-1c3.682-1.32 5.182-3.82 4.5-7.5-.383-.556-.883-.889-1.5-1a26.002 26.002 0 0 1 5-7c.996.086 1.829-.248 2.5-1a16.2 16.2 0 0 1 1.5 3.5 2612.162 2612.162 0 0 0-7.5 15.5c-3.739 5.573-8.572 9.906-14.5 13-1.056 3.781-3.556 5.781-7.5 6-1.388 4.872-1.888 9.872-1.5 15h8c-.84 4.411.327 8.077 3.5 11 2.893-2.65 6.393-3.65 10.5-3a23.776 23.776 0 0 0 2.5 6c2.642-3.955 4.475-3.455 5.5 1.5a18.453 18.453 0 0 1-6 .5v8h16c-.042 3.509.624 6.842 2 10 1.984.117 3.65-.55 5-2a43.986 43.986 0 0 0 7 5Z"/>
    <path fill="#0739a7"
          d="M212.5 155.5c-4.512 8.407-6.179 17.407-5 27-1.568-2.311-2.402-4.978-2.5-8a9.454 9.454 0 0 1-1.5 2.5 56.385 56.385 0 0 1 2.5 15.5l1.5 1.5c-1.483 2.573-.983 4.74 1.5 6.5l1-1c.504 5.167 3.337 7.334 8.5 6.5 2.904 3.288 6.571 5.288 11 6-2.095.556-2.262 1.056-.5 1.5 2.488-2.997 5.654-4.33 9.5-4-.418.722-1.084 1.222-2 1.5l1.5.5a15.414 15.414 0 0 1 4.5-2c1.23 1.797 1.896 3.797 2 6h-25a532.745 532.745 0 0 1-10.5-4c.498-2.027.331-4.027-.5-6a3.647 3.647 0 0 0-1.5 1c-9.059-12.803-11.059-26.803-6-42 1.945-1.681 3.945-2.348 6-2 .827-1.162 1.66-2.329 2.5-3.5-1.112-3.331-.112-4.498 3-3.5Z"/>
    <path fill="#0681f6"
          d="M79.5 136.5c-2.56 3.089-4.56 6.589-6 10.5a12.794 12.794 0 0 0 2 4.5c1-1.667 2.333-3 4-4 .797.457 1.13 1.124 1 2v1c-3.725 5.009-5.558 10.676-5.5 17l1-1c.173 5.516.673 10.849 1.5 16a42.407 42.407 0 0 0 4 12c7.041 11.647 17.374 18.481 31 20.5 31.998.5 63.998.667 96 .5h8c.061 2.55 1.394 4.05 4 4.5-1.315 1.395-.981 2.395 1 3-2.621.906-2.454 1.406.5 1.5 6.936.577 14.103-.09 21.5-2a31.84 31.84 0 0 0 5-4.5l-2-1c.916-.278 1.582-.778 2-1.5 14.051-2.726 24.384-10.392 31-23-.219 1.175.114 2.175 1 3 3.018-2.41 4.684-5.243 5-8.5-2.012-1.152-2.178-2.318-.5-3.5a54.187 54.187 0 0 1 3 9c.671-.752 1.504-1.086 2.5-1a121.345 121.345 0 0 1-7 13 26.002 26.002 0 0 0-5 7c-1.21.432-2.21 1.099-3 2a70.622 70.622 0 0 1-12 8 88.145 88.145 0 0 1-15 4.5c-21.331.5-42.664.667-64 .5-26.002.167-52.002 0-78-.5-24.71-5.928-39.043-21.428-43-46.5a134.175 134.175 0 0 1 1-20 172.535 172.535 0 0 0 6-14 57.484 57.484 0 0 1 9-9Z"/>
    <path fill="#103c9a"
          d="M257.5 202.5c.219 1.175-.114 2.175-1 3a90.514 90.514 0 0 1-14 4 15.414 15.414 0 0 0-4.5 2l-1.5-.5c.916-.278 1.582-.778 2-1.5-3.674-.719-7.007-2.052-10-4 10.14 3.35 19.806 2.35 29-3Z"/>
    <path fill="#1c367e"
          d="M212.5 192.5c4.089 5.425 9.089 9.758 15 13a8.43 8.43 0 0 1-4-.5l-9-7c-1.655-1.444-2.322-3.278-2-5.5Z"
          opacity=".992"/>
    <path fill="#0042b8"
          d="M278.5 211.5c.617.111 1.117.444 1.5 1 .682 3.68-.818 6.18-4.5 7.5l1 1c-2.983 6.154-7.649 10.321-14 12.5-3.833 3.729-8.5 5.729-14 6v3c-5.342.839-10.676 2.672-16 5.5a230.123 230.123 0 0 0-26 3 20.428 20.428 0 0 0-9 4.5c.825.886 1.825 1.219 3 1a62.792 62.792 0 0 0 1 15.5c3.834-.029 7.834.304 12 1 .63 3.129 1.296 6.296 2 9.5 4.761-1.87 9.761-2.537 15-2 .179 2.106 1.179 3.772 3 5a15.39 15.39 0 0 1 6-3c3.045-.104 4.712 1.396 5 4.5-1.354 3.131-.354 5.298 3 6.5 1.77-1.32 2.103-2.82 1-4.5 4.84-1.146 9.84-1.146 15 0 .935 2.381 1.268 4.881 1 7.5h16c-.284 3.277.049 6.443 1 9.5-1.613.089-2.78-.745-3.5-2.5l-5 2-1-1a9.454 9.454 0 0 1-1.5 2.5 34.099 34.099 0 0 0-6 3c4.214.22 8.548.22 13 0 1.167-.5 2-1.333 2.5-2.5 2.454.897 5.287 1.563 8.5 2v2h-15c-19.84.33-39.507-.003-59-1-.418-.722-1.084-1.222-2-1.5l4-1a26.67 26.67 0 0 1-6.5-1.5c-4.156-.112-7.822.221-11 1l-7-2-5 1a9.454 9.454 0 0 0-2.5-1.5 62.744 62.744 0 0 0 11-1.5 21.028 21.028 0 0 1-2-7c-2.195 1.108-4.195.941-6-.5 1.333-1 1.333-2 0-3-3.558-1.903-6.225-.903-8 3a4.934 4.934 0 0 1-3 .5v-3c-7.719-2.648-15.719-4.314-24-5v-13h-8c.262 1.478-.071 2.811-1 4l-6-2c-1.4-2.282-.734-3.782 2-4.5-3.594-1.969-6.594-4.636-9-8a20.2 20.2 0 0 0 6-1.5 42.769 42.769 0 0 0-9-1.5c-2.105-1.193-3.772-2.86-5-5a15.256 15.256 0 0 0 4.5-1.5c2.191.714 4.524 1.047 7 1a10.756 10.756 0 0 0 2.5-3 136 136 0 0 0 28-5c7.078-.749 14.245-.749 21.5 0a485.677 485.677 0 0 1 43.5-4.5c2.05-.416 3.384-1.583 4-3.5 13.689-1.951 26.023-7.118 37-15.5 1.824-2.867 3.99-5.367 6.5-7.5.844-1.963.344-3.296-1.5-4 .79-.901 1.79-1.568 3-2Z"/>
    <path fill="#0370ed"
          d="M216.5 215.5h14c5.857 1.219 11.857 1.219 18 0-.418.722-1.084 1.222-2 1.5l2 1a31.84 31.84 0 0 1-5 4.5c-7.397 1.91-14.564 2.577-21.5 2-2.954-.094-3.121-.594-.5-1.5-1.981-.605-2.315-1.605-1-3-2.606-.45-3.939-1.95-4-4.5Z"/>
    <path fill="#002892"
          d="M63.5 179.5c3.957 25.072 18.29 40.572 43 46.5 25.998.5 51.998.667 78 .5 17.829.832 35.829 1.332 54 1.5a45.992 45.992 0 0 0-9 2.5c-4.526-.708-9.026-.374-13.5 1-7.346.284-14.846-.05-22.5-1a18.08 18.08 0 0 0-3.5 2 980.397 980.397 0 0 0-20 0c-2.268-1.877-4.435-2.043-6.5-.5l5 1-1.5 1.5-3-1c-3.28.746-6.614 1.413-10 2-9.14-1.329-17.974-.996-26.5 1a765.782 765.782 0 0 0-13-1.5c-1.218-1.416-2.551-1.249-4 .5-1.529-.029-2.696-.696-3.5-2-5.013.622-10.013.956-15 1-22.32-9.16-33.82-25.827-34.5-50a14.394 14.394 0 0 1 2-7.5c-.83-1.465-.996-2.965-.5-4.5l1 1a6.807 6.807 0 0 1 1.5-3 470.1 470.1 0 0 0 2 9Z"/>
    <path fill="#003db1"
          d="M136.5 311.5h-48v-3c-5.538.299-9.538 1.299-12 3a60.752 60.752 0 0 0-15-3c-.916-2.172-2.583-3.506-5-4a10.255 10.255 0 0 1-1.5-4 3.647 3.647 0 0 1-1.5 1c-4.245-1.44-5.245-3.773-3-7-.891-1.09-1.891-1.09-3 0-.205-3.875-2.205-5.541-6-5 .408-3.099-.759-5.433-3.5-7a18.836 18.836 0 0 0-2.5-7c.41-12.001.91-24.001 1.5-36l1 15a422.73 422.73 0 0 1 1.5-29 157.123 157.123 0 0 1 1 25h8v4h-8a16.868 16.868 0 0 1-1 8l-1-2c-1.333 1.667-1.333 3.333 0 5a28.818 28.818 0 0 1 10-1v-4c3.35-.165 6.683.002 10 .5l1.5 1.5a83.07 83.07 0 0 1-3.5 10h8c-.082 4.717 1.252 4.883 4 .5 12.881-.917 16.881-.75 12 .5v5c3.21-.488 6.044.179 8.5 2l7-8c-1.413 7.076 1.42 10.743 8.5 11l2 4c-1.673 2.023-2.34 4.356-2 7a64.122 64.122 0 0 1 13.5 0c3.347-1.714 6.847-2.214 10.5-1.5a19.414 19.414 0 0 0 8 4.5 256.827 256.827 0 0 0 32 1 9.86 9.86 0 0 1-1 6c-1.462-.971-2.795-.638-4 1l6 2c-2.469.536-4.636 1.536-6.5 3l-9-1a1713.51 1713.51 0 0 0-17.5 2Z"/>
    <path fill="#0032a0"
          d="M64.5 159.5a134.175 134.175 0 0 0-1 20 470.1 470.1 0 0 1-2-9 6.807 6.807 0 0 0-1.5 3l-1-1c-.496 1.535-.33 3.035.5 4.5a14.394 14.394 0 0 0-2 7.5c.68 24.173 12.18 40.84 34.5 50 4.987-.044 9.987-.378 15-1 .804 1.304 1.971 1.971 3.5 2 1.449-1.749 2.782-1.916 4-.5 4.338.463 8.671.963 13 1.5 8.526-1.996 17.36-2.329 26.5-1 3.386-.587 6.72-1.254 10-2l3 1 1.5-1.5-5-1c2.065-1.543 4.232-1.377 6.5.5a980.397 980.397 0 0 1 20 0 18.08 18.08 0 0 1 3.5-2c7.654.95 15.154 1.284 22.5 1 4.474-1.374 8.974-1.708 13.5-1a45.992 45.992 0 0 1 9-2.5 1444.975 1444.975 0 0 1-54-1.5c21.336.167 42.669 0 64-.5a88.145 88.145 0 0 0 15-4.5 10.098 10.098 0 0 1 6 1.5c-3.025.154-4.691 1.654-5 4.5a42.183 42.183 0 0 1-12 3c.219 1.175-.114 2.175-1 3a32.444 32.444 0 0 1-6 1.5l2 1c-6.798 1.781-13.632 1.948-20.5.5a2512.947 2512.947 0 0 0-108.5 6c-17.288-1.161-17.288-1.994 0-2.5-20.006 2.885-37.172-2.615-51.5-16.5-12.46-18.965-14.96-39.298-7.5-61a24.416 24.416 0 0 0 3-5c1.022.355 1.689 1.022 2 2Z"/>
    <path fill="#2e4ba2"
          d="M34.5 275.5h1a18.836 18.836 0 0 1 2.5 7c2.741 1.567 3.908 3.901 3.5 7 3.795-.541 5.795 1.125 6 5 1.109-1.09 2.109-1.09 3 0-2.245 3.227-1.245 5.56 3 7a3.647 3.647 0 0 0 1.5-1 10.255 10.255 0 0 0 1.5 4c2.417.494 4.084 1.828 5 4-14.494-6.495-23.494-17.495-27-33Z"/>
    <path fill="#3c5ab2"
          d="M321.5 273.5c-2.228 13.878-9.228 24.544-21 32v-4a4.934 4.934 0 0 0 3-.5c-2.429-.451-2.596-1.285-.5-2.5 1.458 1.247 2.958 1.247 4.5 0 .501-2.155 1.501-3.822 3-5 2.082-1.626 3.415-3.793 4-6.5-.392-1.011-1.059-1.511-2-1.5.875-2.273 2.542-3.273 5-3 .787-3.408 2.121-6.408 4-9Z"/>
    <path fill="#576eb4"
          d="M300.5 305.5c-3.402 3.035-7.402 5.035-12 6v-2a57.829 57.829 0 0 1 8-2.5l-1-1a12.93 12.93 0 0 1 5-.5Z"/>
    <path fill="#0c3fa5"
          d="M61.5 308.5a60.752 60.752 0 0 1 15 3c2.462-1.701 6.462-2.701 12-3v3h48c26.291.293 52.291-.04 78-1 19.493.997 39.16 1.33 59 1a9905.613 9905.613 0 0 1-199 1c-4.789-.154-9.122-1.487-13-4Z"/>
    <path fill="#3e5297"
          d="M273.5 311.5h14c-1.109.79-2.442 1.29-4 1.5a394.212 394.212 0 0 1-28.5 1.5 1965.16 1965.16 0 0 0-121 0 9961.342 9961.342 0 0 1-59.5-2c66.502.332 132.835-.001 199-1Z"
          opacity=".965"/>
</svg>